Coordinates
version=1
nRows=8
nColumns=63
inDegrees=yes

Units are S.I. units (second, meters, Newtons, ...)
If the header above contains a line with 'inDegrees', this indicates whether rotational values are in degrees (yes) or radians (no).

endheader
time	pelvis_tilt	pelvis_list	pelvis_rotation	pelvis_tx	pelvis_ty	pelvis_tz	hip_flexion_r	hip_adduction_r	hip_rotation_r	knee_angle_r	knee_angle_r_beta	ankle_angle_r	subtalar_angle_r	mtp_angle_r	hip_flexion_l	hip_adduction_l	hip_rotation_l	knee_angle_l	knee_angle_l_beta	ankle_angle_l	subtalar_angle_l	mtp_angle_l	L5_S1_Flex_Ext	L5_S1_Lat_Bending	L5_S1_axial_rotation	L4_L5_Flex_Ext	L4_L5_Lat_Bending	L4_L5_axial_rotation	L3_L4_Flex_Ext	L3_L4_Lat_Bending	L3_L4_axial_rotation	L2_L3_Flex_Ext	L2_L3_Lat_Bending	L2_L3_axial_rotation	L1_L2_Flex_Ext	L1_L2_Lat_Bending	L1_L2_axial_rotation	L1_T12_Flex_Ext	L1_T12_Lat_Bending	L1_T12_axial_rotation	Abs_r3	Abs_r2	Abs_r1	Abs_t1	Abs_t2	neck_flexion	neck_bending	neck_rotation	arm_flex_r	arm_add_r	arm_rot_r	elbow_flex_r	pro_sup_r	wrist_flex_r	wrist_dev_r	arm_flex_l	arm_add_l	arm_rot_l	elbow_flex_l	pro_sup_l	wrist_flex_l	wrist_dev_l
      5.22000000	     -9.00115084	    -18.36522533	     56.32549505	      0.22292205	      0.98545658	      0.22065839	     29.25378504	     -3.10473021	      9.04467839	     40.41441046	      0.70536453	     39.12623747	      9.34494359	      0.00000000	     11.35114220	      0.96713394	    -23.27867237	     20.85998295	      0.36407538	     35.32624327	    -11.24386997	      0.00000000	     -0.09630239	      0.41278832	     -1.25703122	     -0.17884317	      0.54900846	     -1.33559567	     -0.15821520	      1.00365352	     -1.33559567	     -0.11006400	      1.00365352	     -1.09990231	     -0.08942640	      0.84175794	     -1.02133786	     -0.05502719	      0.63940910	     -0.94277341	     -0.68787833	      4.66954401	     -6.99123052	      0.00000000	      0.00000000	     15.21927465	      4.03461568	     20.23659686	      3.72482640	    -22.89515913	     11.40803583	     44.04598795	     85.03431602	    -15.93344101	     16.10415566	    -17.60736485	    -28.36873146	     51.00193021	     45.30181070	     78.69669689	     -6.90615680	     -0.57179508
      5.24000000	     -8.95604590	    -17.97410005	     56.92284258	      0.22219722	      0.98500440	      0.21892905	     28.84497345	     -3.47817378	      9.16916026	     40.68215133	      0.71003749	     39.60311301	      9.07169015	      0.00000000	     11.00543976	      1.22211990	    -23.09651867	     21.03926521	      0.36720445	     35.41907967	    -11.09060950	      0.00000000	     -0.09503695	      0.42316886	     -1.31775518	     -0.17649313	      0.56281459	     -1.40011488	     -0.15613621	      1.02889277	     -1.40011488	     -0.10861773	      1.02889277	     -1.15303578	     -0.08825131	      0.86292595	     -1.07067608	     -0.05430412	      0.65548857	     -0.98831639	     -0.67883945	      4.78697081	     -7.32895899	      0.00000000	      0.00000000	     14.40639235	      3.28742748	     19.29232966	      3.23632714	    -23.08647343	     12.38141272	     45.13870908	     85.65359926	    -16.02118809	     16.36264524	    -17.36109647	    -28.35039175	     50.79448024	     45.06200997	     79.10711588	     -7.21110292	     -0.05941455
      5.26000000	     -8.40489159	    -18.01074333	     58.66344150	      0.22024114	      0.98491969	      0.21696932	     28.12203313	     -3.75723807	      8.06051903	     40.38997800	      0.70493810	     39.93278334	      8.80249876	      0.00000000	     10.92539728	      0.93766994	    -21.90556392	     21.36289382	      0.37285283	     35.56591600	    -10.59418696	      0.00000000	     -0.10104417	      0.49727583	     -1.55481138	     -0.18764913	      0.66137686	     -1.65198709	     -0.16600547	      1.20907646	     -1.65198709	     -0.11548338	      1.20907646	     -1.36045995	     -0.09382962	      1.01404488	     -1.26328424	     -0.05773664	      0.77028026	     -1.16610853	     -0.72174841	      5.62528367	     -8.64739444	      0.00000000	      0.00000000	     14.27549765	      2.24273506	     18.66014031	      3.27317080	    -23.79881679	     15.01930103	     46.44133570	     86.48685754	    -17.06563215	     18.53635484	    -17.46874144	    -28.22405210	     49.64755567	     46.13668168	     83.48710066	     -8.20241741	      1.33231565
      5.28000000	     -8.32539456	    -17.78050438	     59.26170199	      0.21963244	      0.98494444	      0.21561507	     27.58785809	     -4.04466275	      8.09379104	     40.22123964	      0.70199306	     40.25531648	      8.61897315	      0.00000000	     10.76428795	      1.00742190	    -21.74522292	     21.61859668	      0.37731569	     35.47851631	    -10.35694661	      0.00000000	     -0.10587702	      0.50188301	     -1.54278507	     -0.19662422	      0.66750440	     -1.63920914	     -0.17394536	      1.22027834	     -1.63920914	     -0.12100685	      1.22027834	     -1.34993694	     -0.09831740	      1.02343983	     -1.25351287	     -0.06049813	      0.77741678	     -1.15708880	     -0.75626899	      5.67740095	     -8.58050772	      0.00000000	      0.00000000	     13.84009335	      1.90198756	     19.23659310	      2.65021205	    -23.73240287	     15.61453707	     47.15205379	     86.48838518	    -16.76033813	     18.36547988	    -17.39703324	    -28.53663888	     49.64045526	     47.57572354	     83.98026751	     -8.39342929	      0.97049441
      5.30000000	     -7.96335355	    -17.71891516	     61.07384443	      0.21762579	      0.98500328	      0.21361508	     26.79270869	     -4.49356260	      7.14178995	     39.98600095	      0.69788737	     40.44723798	      8.03490804	      0.00000000	     10.83289589	      0.79742443	    -21.01401210	     22.27532790	      0.38877781	     35.74060487	     -9.09707535	      0.00000000	     -0.12636299	      0.54149621	     -1.77771173	     -0.23466870	      0.72018995	     -1.88881872	     -0.20760175	      1.31659388	     -1.88881872	     -0.14442026	      1.31659388	     -1.55549777	     -0.11734067	      1.10421906	     -1.44439078	     -0.07220381	      0.83877762	     -1.33328380	     -0.90259817	      6.12551339	     -9.88709935	      0.00000000	      0.00000000	     13.45229113	      2.66694949	     21.66738706	      2.61131947	    -23.92322582	     17.33717680	     46.77802440	     86.07769350	    -15.21591949	     16.96074836	    -17.37877662	    -28.54384538	     50.12242845	     49.09021849	     86.57778317	    -10.90880103	      0.51602957
      5.32000000	     -7.73252661	    -17.71405975	     62.20860385	      0.21627968	      0.98499699	      0.21226911	     26.23848636	     -4.75814631	      6.61257680	     39.79089573	      0.69448214	     40.35433193	      7.54078226	      0.00000000	     11.02968034	      0.58031824	    -20.63016928	     22.95906536	      0.40071128	     35.88082694	     -8.22317207	      0.00000000	     -0.13914363	      0.56397236	     -1.85123740	     -0.25840364	      0.75008324	     -1.96693974	     -0.22859907	      1.37124239	     -1.96693974	     -0.15902726	      1.37124239	     -1.61983273	     -0.12920878	      1.15005243	     -1.50413039	     -0.07950667	      0.87359318	     -1.38842805	     -0.99388904	      6.37976811	    -10.29602706	      0.00000000	      0.00000000	     13.07801238	      3.45413776	     24.34335752	      2.44306509	    -23.81830903	     18.78702472	     45.50815575	     85.69143677	    -13.77616176	     14.31051720	    -17.08152992	    -28.67759683	     51.01853378	     50.17958378	     87.14026523	    -12.24255074	     -0.50626081
      5.34000000	     -7.41876033	    -17.71380103	     63.28358771	      0.21484602	      0.98496485	      0.21115535	     25.72068982	     -4.91518504	      6.08972873	     39.71150858	      0.69309658	     40.10762761	      6.98777507	      0.00000000	     11.28022034	      0.24208133	    -20.36238447	     23.80518744	      0.41547890	     36.09461005	     -7.27956933	      0.00000000	     -0.15898725	      0.58376391	     -1.86777273	     -0.29525522	      0.77640600	     -1.98450853	     -0.26120015	      1.41936357	     -1.98450853	     -0.18170653	      1.41936357	     -1.63430114	     -0.14763556	      1.19041137	     -1.51756534	     -0.09084531	      0.90425030	     -1.40082955	     -1.13563002	      6.60365410	    -10.38799159	      0.00000000	      0.00000000	     12.84736378	      4.13418251	     26.59167302	      2.40475070	    -23.67172699	     20.61881407	     43.44143224	     85.39549704	    -12.41571570	     10.51697689	    -16.77101587	    -28.71667353	     51.61509698	     50.51814976	     87.14125412	    -12.90643641	     -1.67570668
      5.36000000	     -7.03355478	    -17.62191490	     64.25105110	      0.21353757	      0.98501204	      0.21074652	     25.25433905	     -4.97579106	      5.63305436	     39.84732712	      0.69546706	     39.64428560	      6.45273628	      0.00000000	     11.51951862	     -0.18579812	    -20.19091402	     24.80560469	      0.43293947	     36.49323652	     -6.33776626	      0.00000000	     -0.19699785	      0.58481752	     -1.79503885	     -0.36584470	      0.77780730	     -1.90722878	     -0.32364776	      1.42192531	     -1.90722878	     -0.22514884	      1.42192531	     -1.57065900	     -0.18293220	      1.19255988	     -1.45846907	     -0.11256457	      0.90588233	     -1.34627914	     -1.40713591	      6.61557271	     -9.98346760	      0.00000000	      0.00000000	     12.92338294	      4.78018031	     27.85367570	      2.43443018	    -23.45055032	     22.87135724	     41.15681245	     85.05711641	    -11.80709932	      6.63976608	    -16.46042773	    -28.76843476	     51.58595838	     49.86117710	     86.62653126	    -12.27934120	     -2.40384717
